<svg height="512" viewBox="0 0 60 60" width="512" xmlns="http://www.w3.org/2000/svg"><g id="Page-1" fill="none" fill-rule="evenodd"><g id="016---Timeline" fill="rgb(0,0,0)" fill-rule="nonzero"><path id="Shape" d="m54 26.729v-21.729c-.0033061-2.76005315-2.2399468-4.99669388-5-5h-44c-2.76005315.00330612-4.99669388 2.23994685-5 5v42c.00330612 2.7600532 2.23994685 4.9966939 5 5h29v3c0 3.283 6.54 5 13 5s13-1.717 13-5v-24c0-2.042-2.532-3.477-6-4.271zm4 20.271c0 1.018-3.883 3-11 3s-11-1.982-11-3v-5.217c2.426 1.46 6.725 2.217 11 2.217s8.574-.757 11-2.217zm-35-35v6h-8v-6zm10 0v6h-8v-6zm10 0v6h-8v-6zm9 0v6h-7v-6zm-18 19v3h-9v-6h11.368c-1.468.779-2.368 1.781-2.368 3zm-9-5v-6h8v6zm-2 0h-8v-6h8zm-8 2h8v6h-8zm20-2v-6h8v6zm-20 18h8v6h-8zm0-2v-6h8v6zm10-6h9v6h-9zm33 3c0 1.018-3.883 3-11 3s-11-1.982-11-3v-5.217c2.426 1.46 6.725 2.217 11 2.217 2.7718178.031707 5.5347905-.3185858 8.211-1.041.9742561-.2665536 1.9112349-.6542458 2.789-1.154zm0-8c0 .425-.893 1.319-3.353 2.041-2.4930525.6683638-5.0661098.9910474-7.647.959-7.117 0-11-1.982-11-3s3.883-3 11-3 11 1.982 11 3zm-11-5h-2v-6h7v6.358c-1.655824-.2400185-3.3268715-.3596655-5-.358zm-42-24h44c1.6568542 0 3 1.34314575 3 3v5h-50v-5c0-1.65685425 1.34314575-3 3-3zm-3 45v-35h11v38h-8c-1.65685425 0-3-1.3431458-3-3zm23 3v-6h9v6zm22 8c-7.117 0-11-1.982-11-3v-5.217c2.426 1.46 6.725 2.217 11 2.217s8.574-.757 11-2.217v5.217c0 1.018-3.883 3-11 3z"/><circle id="Oval" cx="39" cy="38" r="1"/><circle id="Oval" cx="39" cy="46" r="1"/><circle id="Oval" cx="39" cy="54" r="1"/></g></g></svg>